<svg xmlns="http://www.w3.org/2000/svg" width="58" height="54"><path d="M 57.533 27.565 L 51.712 21.778 L 30.368 0.561 C 29.611 -0.187 28.389 -0.187 27.632 0.561 L 6.288 21.778 L 0.467 27.565 C -0.193 28.33 -0.148 29.471 0.568 30.184 C 1.285 30.896 2.433 30.94 3.203 30.285 L 5.715 27.796 L 5.715 50.142 C 5.715 52.273 7.453 54 9.596 54 L 48.404 54 C 50.547 54 52.285 52.273 52.285 50.142 L 52.285 27.796 L 54.797 30.285 C 55.567 30.94 56.715 30.896 57.432 30.184 C 58.148 29.471 58.193 28.33 57.533 27.565 Z M 24.149 50.142 L 24.149 36.64 L 33.851 36.64 L 33.851 50.142 Z M 48.404 50.142 L 37.732 50.142 L 37.732 36.64 C 37.732 34.51 35.994 32.783 33.851 32.783 L 24.149 32.783 C 22.006 32.783 20.268 34.51 20.268 36.64 L 20.268 50.142 L 9.596 50.142 L 9.596 23.939 L 29 4.65 L 48.404 23.939 Z" fill="rgb(0,0,0)"></path></svg>